<svg xmlns="http://www.w3.org/2000/svg" width="48" height="48" fill="none"><path fill="#253238" fill-rule="evenodd" d="M24 24a3 3 0 1 0 0 6 3 3 0 0 0 0-6Zm-1 3a1 1 0 1 1 2 0 1 1 0 0 1-2 0Z" clip-rule="evenodd"/><path fill="#253238" fill-rule="evenodd" d="M24.002 10a1 1 0 0 1 .864.5l15 26A1 1 0 0 1 39 38H9a1 1 0 0 1-.868-1.496l7.504-13.12 7.5-12.887a1 1 0 0 1 .866-.497ZM10.724 36l4.1-7.168c.465 1.284 1.4 2.388 2.589 3.228C19.139 33.278 21.47 34 24 34s4.861-.722 6.587-1.94c1.175-.83 2.101-1.918 2.572-3.182L37.27 36H10.723Zm13.272-23.005 4.522 7.838C27.165 20.296 25.623 20 24 20c-1.648 0-3.212.306-4.58.857l4.576-7.862Zm-5.43 10.58c-1.353.954-2.066 2.18-2.066 3.425 0 1.245.713 2.47 2.066 3.426C19.916 31.379 21.835 32 24 32s4.083-.621 5.434-1.574C30.787 29.47 31.5 28.245 31.5 27s-.713-2.47-2.066-3.426C28.084 22.621 26.165 22 24 22s-4.083.621-5.434 1.574Z" clip-rule="evenodd"/><path fill="#253238" d="M34 19.01a.99.99 0 1 0 0 1.98h5a.99.99 0 1 0 0-1.98h-5ZM37.792 10.406a.99.99 0 0 1-.198 1.386l-4 3a.99.99 0 1 1-1.188-1.584l4-3a.99.99 0 0 1 1.386.198ZM9 19.01a.99.99 0 1 0 0 1.98h5a.99.99 0 1 0 0-1.98H9ZM11.208 10.406a.99.99 0 0 1 1.386-.198l4 3a.99.99 0 1 1-1.188 1.584l-4-3a.99.99 0 0 1-.198-1.386Z"/></svg>