<svg xmlns="http://www.w3.org/2000/svg" width="48" height="48" fill="none"><path fill="#253238" d="M20 30a1 1 0 0 1 1-1h6a1 1 0 1 1 0 2h-6a1 1 0 0 1-1-1ZM23 23a1 1 0 1 0 0 2h2a1 1 0 1 0 0-2h-2Z"/><path fill="#253238" fill-rule="evenodd" d="m38.175 18.239 1.532-1.532a1 1 0 0 0-1.414-1.414l-1.66 1.66-2.037-4.657A5.5 5.5 0 0 0 29.556 9H18.444a5.5 5.5 0 0 0-5.039 3.296l-2.037 4.657-1.66-1.66a1 1 0 0 0-1.414 1.414l1.532 1.532A3 3 0 0 0 8 21v14a3 3 0 0 0 3 3h2a3 3 0 0 0 3-3v-1.334a96.004 96.004 0 0 0 16 0V35a3 3 0 0 0 3 3h2a3 3 0 0 0 3-3V21a3 3 0 0 0-1.825-2.761ZM18.443 11a3.5 3.5 0 0 0-3.207 2.097l-2.093 4.785 5.047-1.859a17.002 17.002 0 0 1 11.62 0l.003.002 5.044 1.857-2.093-4.785A3.5 3.5 0 0 0 29.556 11H18.443ZM38 27.297c-4.646.545-9.323.78-14 .703-4.678.07-9.355-.172-14-.723v2.887a1 1 0 0 0 .9.995l3.747.375c6.22.622 12.486.622 18.706 0l3.746-.375a1 1 0 0 0 .901-.995v-2.867Zm0 5.696a3.002 3.002 0 0 1-.702.156l-3.298.33V35a1 1 0 0 0 1 1h2a1 1 0 0 0 1-1v-2.007Zm-28 0V35a1 1 0 0 0 1 1h2a1 1 0 0 0 1-1v-1.521l-3.299-.33a3.002 3.002 0 0 1-.701-.156Zm0-7.723c.04 0 .079.002.119.007a103.4 103.4 0 0 0 6.877.592c-.05-.871-.617-1.391-1.403-1.742a5.431 5.431 0 0 0-1.158-.356 5.558 5.558 0 0 0-.482-.072l-.021-.001h-.007a70.88 70.88 0 0 1-3.925-.4v1.972Zm0-3.98c.043 0 .086.003.129.008.987.129 2.228.276 3.944.405h.018l.046.005.156.017c.129.015.309.041.522.083.423.082 1.002.229 1.592.492 1.167.52 2.573 1.605 2.593 3.655 1.66.055 3.323.07 4.985.045h.031c1.662.028 3.324.015 4.984-.038.017-2.055 1.425-3.14 2.593-3.662.59-.263 1.169-.41 1.592-.492a7.642 7.642 0 0 1 .678-.1l.046-.004.015-.001h.002c1.72-.129 3.009-.277 3.938-.404.046-.006.091-.01.136-.01V21a1 1 0 0 0-1-1h-1.644a3 3 0 0 1-1.036-.185l-5.194-1.912h-.002a15 15 0 0 0-10.248 0h-.002l-5.194 1.912a3 3 0 0 1-1.037.185H11a1 1 0 0 0-1 1v.29Zm28 2.009c-.958.128-2.246.273-3.925.398h-.007l-.02.002a5.567 5.567 0 0 0-.482.072 5.431 5.431 0 0 0-1.159.356c-.79.352-1.356.875-1.404 1.752 2.298-.117 4.593-.311 6.88-.582.039-.005.078-.007.117-.007v-1.991Z" clip-rule="evenodd"/></svg>