<svg xmlns="http://www.w3.org/2000/svg" width="48" height="48" fill="none"><path fill="#253238" d="M19 26a1 1 0 1 0-2 0v.999a1 1 0 0 0 2 0V26ZM23 26a1 1 0 1 0-2 0v.999a1 1 0 0 0 2 0V26ZM25.996 25a1 1 0 0 1 1 1v.999a1 1 0 0 1-2 0V26a1 1 0 0 1 1-1ZM31 26a1 1 0 1 0-2 0v.999a1 1 0 0 0 2 0V26Z"/><path fill="#253238" fill-rule="evenodd" d="M19 8a2 2 0 0 0-2.001 2h-1.42a2 2 0 0 0-1.737 1.007l-4.576 8C8.503 20.34 9.466 21.999 11 22v12a6 6 0 0 0 6 6h14a6 6 0 0 0 6-6V22c1.535-.001 2.497-1.66 1.735-2.993l-4.577-8A2 2 0 0 0 32.422 10H24a2 2 0 0 0-2-2h-3Zm-2 4h-1.421L11 20H36.998l-4.576-8H24v1a1 1 0 1 1-2 0v-3h-3v3a1 1 0 1 1-2 0v-1Zm18 10H13v12a4 4 0 0 0 4 4h2v-5a3 3 0 0 1 3-3h4a3 3 0 0 1 3 3v5h2a4 4 0 0 0 4-4V22Zm-8 11v5h-6v-5a1 1 0 0 1 1-1h4a1 1 0 0 1 1 1Z" clip-rule="evenodd"/></svg>