<svg xmlns="http://www.w3.org/2000/svg" width="48" height="48" fill="none"><path fill="#253238" d="M32 25a1 1 0 1 0-2 0v1a1 1 0 1 0 2 0v-1ZM24 21a1 1 0 0 1 1 1v6a1 1 0 1 1-2 0v-6a1 1 0 0 1 1-1Z"/><path fill="#253238" fill-rule="evenodd" d="M27.398 10.36a13.741 13.741 0 0 0-5.883-.08c-4.427.854-7.485 3.503-9.323 6.94-1.825 3.413-2.446 7.587-2.098 11.591v.004c.1 1.119.485 2.614 1.08 3.951.572 1.284 1.453 2.683 2.695 3.276l.008.003c2.857 1.333 5.979 2 9.13 1.953 3.699-.001 6.207-.513 7.821-1.05a10.501 10.501 0 0 0 1.782-.762 5.6 5.6 0 0 0 .45-.277c.069-.047.139-.097.202-.151 1.577-1.356 2.784-3.48 3.58-5.722.8-2.255 1.222-4.74 1.147-6.91v-.01a13.712 13.712 0 0 0-5.276-10.218 13.735 13.735 0 0 0-5.315-2.538Zm7.558 19.007c-.729 2.056-1.776 3.817-2.982 4.86a3.621 3.621 0 0 1-.336.21 8.508 8.508 0 0 1-1.441.613c-1.385.46-3.68.948-7.197.948h-.015a18.855 18.855 0 0 1-8.258-1.763c-.45-.216-.95-.787-1.408-1.635a28 28 0 0 0 13.236-.303 3.1 3.1 0 0 0 2.315-2.952v-6.101a6.69 6.69 0 0 0-5.415-6.623l-7.115-1.604c1.45-1.358 3.29-2.338 5.56-2.775l.011-.002a11.74 11.74 0 0 1 12.786 6.106 11.71 11.71 0 0 1 1.294 4.853c.064 1.885-.308 4.119-1.035 6.168ZM14.844 16.73c-.325.454-.62.933-.888 1.434-1.603 2.996-2.192 6.764-1.87 10.473.043.471.155 1.059.33 1.68a26 26 0 0 0 13.625.047l.007-.002a1.1 1.1 0 0 0 .822-1.04V23.23a4.69 4.69 0 0 0-3.84-4.655l-8.186-1.846Z" clip-rule="evenodd"/></svg>