<svg xmlns="http://www.w3.org/2000/svg" width="48" height="48" fill="none"><path fill="#253238" fill-rule="evenodd" d="m13 24.72-2.608.521A2 2 0 0 1 8 23.281v-8.648a2 2 0 0 1 1.144-1.808l7.557-3.58a2.55 2.55 0 0 1 3.372 1.165l.668 1.335a2.991 2.991 0 0 0 1.497 1.412c1.125.482 2.399.482 3.524 0a2.991 2.991 0 0 0 1.497-1.412l.668-1.335a2.55 2.55 0 0 1 3.372-1.164l7.557 3.58A2 2 0 0 1 40 14.632v8.647a2 2 0 0 1-2.392 1.961L35 24.72V37a2 2 0 0 1-2 2H15a2 2 0 0 1-2-2V24.72Zm4.557-13.667a.55.55 0 0 1 .727.251l.668 1.335a4.991 4.991 0 0 0 2.498 2.356 6.474 6.474 0 0 0 5.1 0 4.991 4.991 0 0 0 2.498-2.355l.668-1.336a.55.55 0 0 1 .727-.25L38 14.632v8.647l-3-.6V20.5a1 1 0 1 0-2 0V32H15V20.5a1 1 0 1 0-2 0v2.18l-3 .6v-8.647l7.557-3.58ZM33 34v3H15v-3h18Z" clip-rule="evenodd"/></svg>