<svg xmlns="http://www.w3.org/2000/svg" width="48" height="48" fill="none"><path fill="#253238" d="M35 28a1 1 0 1 0-2 0v1a1 1 0 1 0 2 0v-1Z"/><path fill="#253238" fill-rule="evenodd" d="M8 12a3 3 0 0 1 3-3h22a3 3 0 0 1 3 3v12.207c2.309.653 4 2.775 4 5.293v4a5.5 5.5 0 0 1-5.5 5.5h-1a5.478 5.478 0 0 1-3.544-1.294A1 1 0 0 1 29 39H15a1 1 0 0 1 0-2c1.686 0 2.667-1.082 3.278-2.417A8.634 8.634 0 0 0 18.813 33H11a3 3 0 0 1-3-3V12Zm26 0v12h-.5a5.502 5.502 0 0 0-5.293 4H10V12a1 1 0 0 1 1-1h22a1 1 0 0 1 1 1ZM10 30h18v1H11a1 1 0 0 1-1-1Zm15.187 3H28v.5c0 1.35.486 2.587 1.294 3.544A1 1 0 0 0 29 37c-1.686 0-2.667-1.082-3.278-2.417A8.634 8.634 0 0 1 25.187 33Zm-4.328 0c-.009.046-.018.093-.029.141-.126.61-.349 1.437-.733 2.276A7.55 7.55 0 0 1 19.132 37h5.736a7.554 7.554 0 0 1-.965-1.583A10.843 10.843 0 0 1 23.141 33h-2.282ZM33.5 26a3.5 3.5 0 0 0-3.5 3.5v4a3.5 3.5 0 0 0 3.5 3.5h1a3.5 3.5 0 0 0 3.5-3.5v-4a3.5 3.5 0 0 0-3.5-3.5h-1Z" clip-rule="evenodd"/></svg>