<svg xmlns="http://www.w3.org/2000/svg" width="48" height="48" fill="none" stroke="#253238" stroke-width="2" xmlns:v="https://vecta.io/nano"><g stroke-linejoin="round"><path d="M37.04 14H10.96A1.96 1.96 0 0 0 9 15.96v19.08A1.96 1.96 0 0 0 10.96 37h26.08A1.96 1.96 0 0 0 39 35.04V15.96A1.96 1.96 0 0 0 37.04 14z"/><path d="M31.003 33.508c-5.316.656-10.689.656-16.006 0-.584-.109-1.125-.387-1.561-.801s-.748-.948-.9-1.539a30.22 30.22 0 0 1 0-11.337c.152-.591.464-1.124.9-1.539s.977-.692 1.561-.801c5.316-.656 10.689-.656 16.006 0 .584.109 1.125.387 1.561.801s.748.948.9 1.539a30.22 30.22 0 0 1 0 11.337c-.152.591-.464 1.124-.9 1.539s-.977.692-1.561.801z"/><path d="M19 9l4 4m5-4l-4 4" stroke-linecap="round"/></g><path d="M39 22h-1m1 4h-1m1 4h-1m-25 7v1m21-1v1" stroke-linecap="round"/></svg>