<svg width="165" height="41" viewBox="0 0 165 41" fill="none" xmlns="http://www.w3.org/2000/svg">
<path d="M145.221 38.8841C145.257 40.0902 146.16 41 147.32 41C148.48 41 149.383 40.0868 149.421 38.8841L149.66 30.9248C149.682 30.206 150.405 29.7187 151.067 29.9849C152.229 30.4525 153.495 30.7095 154.822 30.7117C160.264 30.7175 164.788 26.3436 164.993 20.8645C165.21 15.0278 160.578 10.2257 154.831 10.2257C149.217 10.2257 144.667 14.8113 144.667 20.4687C144.667 22.1666 145.221 38.8841 145.221 38.8841ZM154.831 25.824C151.898 25.824 149.518 23.4258 149.518 20.4687C149.518 17.5115 151.898 15.1134 154.831 15.1134C157.767 15.1134 160.147 17.5115 160.147 20.4687C160.147 23.4258 157.769 25.824 154.831 25.824Z" fill="#13C1AC"/>
<path d="M30.4855 12.3392C30.42 11.0081 29.4515 10.2547 28.4039 10.2547C27.3493 10.2547 26.4097 11.0081 26.3327 12.3392L25.8044 21.4723C25.6378 24.3485 24.0007 25.8253 21.9145 25.8253C19.8929 25.8253 18.2834 24.4768 18.0628 22.0568L17.4047 14.9746C17.2874 13.7084 16.3891 13.066 15.5104 13.066C15.4955 13.066 15.4793 13.0672 15.4643 13.0672C15.4494 13.0672 15.4345 13.066 15.4185 13.066C14.5396 13.066 13.6413 13.7084 13.5242 14.9746L12.8658 22.0568C12.6453 24.4768 11.036 25.8253 9.01415 25.8253C6.92794 25.8253 5.29107 24.3496 5.1245 21.4723L4.59603 12.3392C4.51904 11.0081 3.57937 10.2547 2.52475 10.2547C1.47715 10.2547 0.508692 11.0081 0.443217 12.3392L0.0113351 21.2442C-0.265495 26.9468 4.57876 30.7129 9.01415 30.7129C11.2175 30.7129 13.2335 29.919 14.7992 28.6007C15.1852 28.2754 15.7435 28.2754 16.1295 28.6007C17.6952 29.919 19.7112 30.7129 21.9145 30.7129C26.3499 30.7129 31.1954 26.9468 30.9174 21.2442L30.4855 12.3392Z" fill="#13C1AC"/>
<path d="M133.189 10.2257C127.573 10.2257 123.022 14.8113 123.022 20.4687C123.022 26.1262 127.573 30.7117 133.189 30.7117C138.804 30.7117 143.355 26.1262 143.355 20.4687C143.355 14.8113 138.803 10.2257 133.189 10.2257ZM133.189 25.824C130.253 25.824 127.873 23.4258 127.873 20.4687C127.873 17.5115 130.253 15.1134 133.189 15.1134C136.124 15.1134 138.504 17.5115 138.504 20.4687C138.504 23.4258 136.124 25.824 133.189 25.824Z" fill="#13C1AC"/>
<path d="M111.657 10.2257C106.042 10.2257 101.491 14.8113 101.491 20.4687C101.491 20.8877 101.524 22.2199 101.576 23.9896C101.538 25.0496 100.755 25.824 99.7494 25.824C98.7398 25.824 98.0516 25.0913 97.9298 24.1458L97.2866 19.1805C97.2842 19.1654 97.2832 19.1504 97.2808 19.1353L97.2763 19.096C96.6111 14.0879 92.3538 10.2257 87.2005 10.2257C81.6303 10.2257 77.1077 14.7396 77.0364 20.3344L77.0352 20.3309C77.0352 20.3309 76.9859 21.8669 77.1811 23.7442C77.2937 24.8217 76.1426 25.8251 75.133 25.8251C73.96 25.8251 73.1031 24.9039 73.0421 22.8703C73.0214 22.1851 72.4127 1.99421 72.4127 1.99421V1.96181C72.3839 1.00926 71.5052 0 70.315 0C69.1066 0 68.2507 1.00926 68.2209 1.99421L67.5926 22.8703C67.5339 24.8251 66.2829 25.8251 64.8665 25.8251C63.4351 25.8251 62.2128 24.8251 62.1544 22.8703C62.0819 20.4641 61.5259 1.99421 61.5259 1.99421C61.4949 0.95486 60.5702 0 59.4317 0C58.3957 0 57.3698 0.814813 57.3342 1.99421C57.3342 1.99421 56.692 23.2928 56.6714 23.978C56.6392 25.0451 55.8535 25.8251 54.8436 25.8251C53.8338 25.8251 53.1458 25.0926 53.024 24.1469L52.3692 19.0971C51.7075 14.1156 47.4928 10.2685 42.3762 10.228C36.7507 10.1829 32.127 14.8032 32.127 20.471C32.127 26.1272 36.6784 30.7129 42.2935 30.7129C44.6576 30.7129 46.8334 29.8992 48.56 28.5358C48.8219 28.331 49.1056 28.2825 49.2986 28.2825C50.8196 28.2825 51.0079 30.7117 54.8436 30.7117C56.3864 30.7117 57.9969 29.6609 58.8367 29.0197C59.1722 28.7627 59.6373 28.7709 59.9647 29.0382C60.7562 29.6805 62.4058 30.7129 64.8446 30.7129C66.9675 30.7129 68.3678 29.8171 69.0985 29.1747C69.4489 28.8669 69.9682 28.8669 70.3184 29.1747C71.048 29.8171 72.4276 30.7129 74.4437 30.7129C77.8106 30.7129 79.1858 28.2835 80.1886 28.2835C80.5045 28.2835 80.7135 28.3703 80.9549 28.5509C82.6779 29.905 84.8467 30.7129 87.2016 30.7129C89.5659 30.7129 91.7415 29.8992 93.4682 28.5358C93.7301 28.331 94.0139 28.2825 94.2067 28.2825C95.7278 28.2825 96.085 30.7117 99.1774 30.7117C100.13 30.7117 100.809 30.3472 101.589 29.8958C101.663 29.8517 101.759 29.905 101.761 29.9918C101.903 34.4989 102.048 38.8841 102.048 38.8841C102.085 40.0902 102.988 41 104.148 41C105.307 41 106.211 40.0868 106.248 38.8841L106.488 30.9248C106.51 30.199 107.242 29.7234 107.911 29.9918C109.068 30.4549 110.33 30.7106 111.651 30.7117C117.092 30.7175 121.616 26.3436 121.82 20.8645C122.034 15.0278 117.402 10.2257 111.657 10.2257ZM42.2924 25.824C39.3573 25.824 36.977 23.4258 36.977 20.4687C36.977 17.5115 39.3573 15.1134 42.2924 15.1134C45.2274 15.1134 47.6076 17.5115 47.6076 20.4687C47.6076 23.4258 45.2274 25.824 42.2924 25.824ZM87.1995 25.824C84.2644 25.824 81.8841 23.4258 81.8841 20.4687C81.8841 17.5115 84.2644 15.1134 87.1995 15.1134C90.1345 15.1134 92.5146 17.5115 92.5146 20.4687C92.5146 23.4258 90.1345 25.824 87.1995 25.824ZM111.657 25.824C108.722 25.824 106.342 23.4258 106.342 20.4687C106.342 17.5115 108.722 15.1134 111.657 15.1134C114.592 15.1134 116.973 17.5115 116.973 20.4687C116.973 23.4258 114.592 25.824 111.657 25.824Z" fill="#13C1AC"/>
</svg>
